<?xml version="1.0" encoding="UTF-8"?>
<svg xmlns="http://www.w3.org/2000/svg" xmlns:xlink="http://www.w3.org/1999/xlink" id="Group_263" data-name="Group 263" width="170.602" height="191.85" viewBox="0 0 170.602 191.85">
  <defs>
    <clipPath id="clip-path">
      <rect id="Rectangle_475" data-name="Rectangle 475" width="170.602" height="191.85" fill="none"></rect>
    </clipPath>
  </defs>
  <path id="Path_647" data-name="Path 647" d="M90.131,114.62,100.385,104.5V84.714L90.131,74.46V9.144H49.039V182.707H90.131Z" fill="#fdf2ed"></path>
  <path id="Path_648" data-name="Path 648" d="M90.131,114.62,100.385,104.5V84.714L90.131,74.46V9.144H49.039V182.707H90.131Z" fill="none" stroke="#fe4f02" stroke-linejoin="bevel" stroke-width="1"></path>
  <path id="Path_649" data-name="Path 649" d="M156.674,9.144H142.755v63.4l6.959,6.96v30.078l-6.959,6.959v66.17h13.919Z" fill="#fdf2ed"></path>
  <path id="Path_650" data-name="Path 650" d="M156.674,9.144H142.755v63.4l6.959,6.96v30.078l-6.959,6.959v66.17h13.919Z" fill="none" stroke="#fe4f02" stroke-linejoin="bevel" stroke-width="1"></path>
  <rect id="Rectangle_473" data-name="Rectangle 473" width="13.663" height="190.85" transform="translate(156.439 0.5)" fill="#fdf2ed"></rect>
  <g id="Group_258" data-name="Group 258">
    <g id="Group_257" data-name="Group 257" clip-path="url(#clip-path)">
      <rect id="Rectangle_474" data-name="Rectangle 474" width="13.663" height="190.85" transform="translate(156.439 0.5)" fill="none" stroke="#fe4f02" stroke-linejoin="bevel" stroke-width="1"></rect>
    </g>
  </g>
  <rect id="Rectangle_476" data-name="Rectangle 476" width="18.395" height="190.85" transform="translate(0.5 0.5)" fill="#fdf2ed"></rect>
  <g id="Group_260" data-name="Group 260">
    <g id="Group_259" data-name="Group 259" clip-path="url(#clip-path)">
      <rect id="Rectangle_477" data-name="Rectangle 477" width="18.395" height="190.85" transform="translate(0.5 0.5)" fill="none" stroke="#fe4f02" stroke-linejoin="bevel" stroke-width="1"></rect>
    </g>
  </g>
  <rect id="Rectangle_479" data-name="Rectangle 479" width="29.984" height="35.31" transform="translate(18.896 9.183)" fill="#fdf2ed"></rect>
  <rect id="Rectangle_480" data-name="Rectangle 480" width="29.984" height="35.31" transform="translate(18.896 9.183)" fill="none" stroke="#fe4f02" stroke-linejoin="bevel" stroke-width="1"></rect>
  <rect id="Rectangle_481" data-name="Rectangle 481" width="29.984" height="31.169" transform="translate(18.896 151.538)" fill="#fdf2ed"></rect>
  <rect id="Rectangle_482" data-name="Rectangle 482" width="29.984" height="31.169" transform="translate(18.896 151.538)" fill="none" stroke="#fe4f02" stroke-linejoin="bevel" stroke-width="1"></rect>
  <rect id="Rectangle_483" data-name="Rectangle 483" width="18.816" height="99.639" transform="translate(18.895 48.399)" fill="#fdf2ed"></rect>
  <rect id="Rectangle_484" data-name="Rectangle 484" width="18.816" height="99.639" transform="translate(18.895 48.399)" fill="none" stroke="#fe4f02" stroke-linejoin="bevel" stroke-width="1"></rect>
  <path id="Path_651" data-name="Path 651" d="M163.865,79.5V89.44H149.714v10.2h14.151v9.941H170.1V79.5Z" fill="#e5c4b7"></path>
  <g id="Group_262" data-name="Group 262">
    <g id="Group_261" data-name="Group 261" clip-path="url(#clip-path)">
      <path id="Path_652" data-name="Path 652" d="M170.1,109.577V79.5h-6.237V89.44H149.714v10.2h14.151v9.941Z" fill="none" stroke="#fe4f02" stroke-linejoin="bevel" stroke-width="1"></path>
    </g>
  </g>
  <rect id="Rectangle_486" data-name="Rectangle 486" width="9.736" height="17.874" transform="translate(146.704 159.883)" fill="#e5c4b7"></rect>
  <rect id="Rectangle_487" data-name="Rectangle 487" width="9.736" height="17.874" transform="translate(146.704 159.883)" fill="none" stroke="#fe4f02" stroke-linejoin="bevel" stroke-width="1"></rect>
  <rect id="Rectangle_488" data-name="Rectangle 488" width="9.736" height="17.874" transform="translate(146.704 16.366)" fill="#e5c4b7"></rect>
  <rect id="Rectangle_489" data-name="Rectangle 489" width="9.736" height="17.874" transform="translate(146.704 16.366)" fill="none" stroke="#fe4f02" stroke-linejoin="bevel" stroke-width="1"></rect>
  <rect id="Rectangle_490" data-name="Rectangle 490" width="58.894" height="6.936" transform="translate(30.515 126.145)" fill="#e5c4b7"></rect>
  <rect id="Rectangle_491" data-name="Rectangle 491" width="58.894" height="6.936" transform="translate(30.515 126.145)" fill="none" stroke="#fe4f02" stroke-linejoin="bevel" stroke-width="1"></rect>
  <rect id="Rectangle_492" data-name="Rectangle 492" width="58.894" height="6.936" transform="translate(30.515 59.119)" fill="#e5c4b7"></rect>
  <rect id="Rectangle_493" data-name="Rectangle 493" width="58.894" height="6.936" transform="translate(30.515 59.119)" fill="none" stroke="#fe4f02" stroke-linejoin="bevel" stroke-width="1"></rect>
  <rect id="Rectangle_494" data-name="Rectangle 494" width="4.672" height="18.254" transform="translate(25.843 120.486)" fill="#e5c4b7"></rect>
  <rect id="Rectangle_495" data-name="Rectangle 495" width="4.672" height="18.254" transform="translate(25.843 120.486)" fill="none" stroke="#fe4f02" stroke-linejoin="bevel" stroke-width="1"></rect>
  <rect id="Rectangle_496" data-name="Rectangle 496" width="4.672" height="18.254" transform="translate(25.843 53.46)" fill="#e5c4b7"></rect>
  <rect id="Rectangle_497" data-name="Rectangle 497" width="4.672" height="18.254" transform="translate(25.843 53.46)" fill="none" stroke="#fe4f02" stroke-linejoin="bevel" stroke-width="1"></rect>
  <rect id="Rectangle_498" data-name="Rectangle 498" width="50.911" height="10.127" transform="translate(53.711 20.24)" fill="#e5c4b7"></rect>
  <rect id="Rectangle_499" data-name="Rectangle 499" width="50.911" height="10.127" transform="translate(53.711 20.24)" fill="none" stroke="#fe4f02" stroke-linejoin="bevel" stroke-width="1"></rect>
  <rect id="Rectangle_500" data-name="Rectangle 500" width="4.672" height="18.254" transform="translate(48.88 15.986)" fill="#e5c4b7"></rect>
  <rect id="Rectangle_501" data-name="Rectangle 501" width="4.672" height="18.254" transform="translate(48.88 15.986)" fill="none" stroke="#fe4f02" stroke-linejoin="bevel" stroke-width="1"></rect>
  <rect id="Rectangle_502" data-name="Rectangle 502" width="4.974" height="10.127" transform="translate(104.623 20.239)" fill="#e5c4b7"></rect>
  <rect id="Rectangle_503" data-name="Rectangle 503" width="4.974" height="10.127" transform="translate(104.623 20.239)" fill="none" stroke="#fe4f02" stroke-linejoin="bevel" stroke-width="1"></rect>
  <rect id="Rectangle_504" data-name="Rectangle 504" width="50.911" height="10.127" transform="translate(53.711 162.249)" fill="#e5c4b7"></rect>
  <rect id="Rectangle_505" data-name="Rectangle 505" width="50.911" height="10.127" transform="translate(53.711 162.249)" fill="none" stroke="#fe4f02" stroke-linejoin="bevel" stroke-width="1"></rect>
  <rect id="Rectangle_506" data-name="Rectangle 506" width="4.672" height="18.254" transform="translate(48.88 157.995)" fill="#e5c4b7"></rect>
  <rect id="Rectangle_507" data-name="Rectangle 507" width="4.672" height="18.254" transform="translate(48.88 157.995)" fill="none" stroke="#fe4f02" stroke-linejoin="bevel" stroke-width="1"></rect>
  <rect id="Rectangle_508" data-name="Rectangle 508" width="4.974" height="10.127" transform="translate(104.623 162.249)" fill="#e5c4b7"></rect>
  <rect id="Rectangle_509" data-name="Rectangle 509" width="4.974" height="10.127" transform="translate(104.623 162.249)" fill="none" stroke="#fe4f02" stroke-linejoin="bevel" stroke-width="1"></rect>
  <line id="Line_71" data-name="Line 71" x2="17.373" transform="translate(111.702 94.538)" fill="none" stroke="#fe4f02" stroke-linejoin="bevel" stroke-width="3"></line>
  <path id="Path_653" data-name="Path 653" d="M100.545,72.737l10.934,11.14v21.662l-10.934,10.934" fill="none" stroke="#fe4f02" stroke-linejoin="bevel" stroke-width="3"></path>
  <path id="Path_654" data-name="Path 654" d="M25.843,148.038v0Z" fill="#e5c4b7"></path>
  <line id="Line_72" data-name="Line 72" y2="99.639" transform="translate(25.843 48.399)" fill="none" stroke="#fe4f02" stroke-linejoin="bevel" stroke-width="1"></line>
</svg>
