<?xml version="1.0" encoding="UTF-8"?>
<svg xmlns="http://www.w3.org/2000/svg" xmlns:xlink="http://www.w3.org/1999/xlink" id="Group_270" data-name="Group 270" width="170.602" height="191.85" viewBox="0 0 170.602 191.85">
  <defs>
    <clipPath id="clip-path">
      <rect id="Rectangle_518" data-name="Rectangle 518" width="170.602" height="191.85" fill="none"></rect>
    </clipPath>
  </defs>
  <rect id="Rectangle_510" data-name="Rectangle 510" width="9.736" height="17.874" transform="translate(147.892 159.883)" fill="#e5c4b7"></rect>
  <rect id="Rectangle_511" data-name="Rectangle 511" width="9.736" height="17.874" transform="translate(147.892 159.883)" fill="none" stroke="#fe4f02" stroke-linejoin="bevel" stroke-width="1"></rect>
  <rect id="Rectangle_512" data-name="Rectangle 512" width="9.736" height="17.874" transform="translate(147.892 16.366)" fill="#e5c4b7"></rect>
  <rect id="Rectangle_513" data-name="Rectangle 513" width="9.736" height="17.874" transform="translate(147.892 16.366)" fill="none" stroke="#fe4f02" stroke-linejoin="bevel" stroke-width="1"></rect>
  <rect id="Rectangle_514" data-name="Rectangle 514" width="12.474" height="173.563" transform="translate(117.642 9.144)" fill="#fdf2ed"></rect>
  <rect id="Rectangle_515" data-name="Rectangle 515" width="12.474" height="173.563" transform="translate(117.642 9.144)" fill="none" stroke="#fe4f02" stroke-linejoin="bevel" stroke-width="1"></rect>
  <rect id="Rectangle_516" data-name="Rectangle 516" width="12.474" height="190.85" transform="translate(157.628 0.5)" fill="#fdf2ed"></rect>
  <g id="Group_265" data-name="Group 265">
    <g id="Group_264" data-name="Group 264" clip-path="url(#clip-path)">
      <rect id="Rectangle_517" data-name="Rectangle 517" width="12.474" height="190.85" transform="translate(157.628 0.5)" fill="none" stroke="#fe4f02" stroke-linejoin="bevel" stroke-width="1"></rect>
    </g>
  </g>
  <rect id="Rectangle_519" data-name="Rectangle 519" width="18.395" height="190.85" transform="translate(0.5 0.5)" fill="#fdf2ed"></rect>
  <g id="Group_267" data-name="Group 267">
    <g id="Group_266" data-name="Group 266" clip-path="url(#clip-path)">
      <rect id="Rectangle_520" data-name="Rectangle 520" width="18.395" height="190.85" transform="translate(0.5 0.5)" fill="none" stroke="#fe4f02" stroke-linejoin="bevel" stroke-width="1"></rect>
    </g>
  </g>
  <rect id="Rectangle_522" data-name="Rectangle 522" width="29.984" height="35.31" transform="translate(18.896 9.183)" fill="#fdf2ed"></rect>
  <rect id="Rectangle_523" data-name="Rectangle 523" width="29.984" height="35.31" transform="translate(18.896 9.183)" fill="none" stroke="#fe4f02" stroke-linejoin="bevel" stroke-width="1"></rect>
  <rect id="Rectangle_524" data-name="Rectangle 524" width="29.984" height="31.169" transform="translate(18.896 151.538)" fill="#fdf2ed"></rect>
  <rect id="Rectangle_525" data-name="Rectangle 525" width="29.984" height="31.169" transform="translate(18.896 151.538)" fill="none" stroke="#fe4f02" stroke-linejoin="bevel" stroke-width="1"></rect>
  <rect id="Rectangle_526" data-name="Rectangle 526" width="18.816" height="99.639" transform="translate(18.895 48.399)" fill="#fdf2ed"></rect>
  <rect id="Rectangle_527" data-name="Rectangle 527" width="18.816" height="99.639" transform="translate(18.895 48.399)" fill="none" stroke="#fe4f02" stroke-linejoin="bevel" stroke-width="1"></rect>
  <path id="Path_655" data-name="Path 655" d="M163.865,79.5V89.44H149.714v10.2h14.151v9.941H170.1V79.5Z" fill="#e5c4b7"></path>
  <g id="Group_269" data-name="Group 269">
    <g id="Group_268" data-name="Group 268" clip-path="url(#clip-path)">
      <path id="Path_656" data-name="Path 656" d="M170.1,109.577V79.5h-6.237V89.44H149.714v10.2h14.151v9.941Z" fill="none" stroke="#fe4f02" stroke-linejoin="bevel" stroke-width="1"></path>
    </g>
  </g>
  <rect id="Rectangle_529" data-name="Rectangle 529" width="12.474" height="10.127" transform="translate(117.642 89.542)" fill="#e5c4b7"></rect>
  <rect id="Rectangle_530" data-name="Rectangle 530" width="12.474" height="10.127" transform="translate(117.642 89.542)" fill="none" stroke="#fe4f02" stroke-linejoin="bevel" stroke-width="1"></rect>
  <path id="Path_657" data-name="Path 657" d="M119.923,9.144H106V72.737l6.959,6.96v28.179L106,114.836v67.871h13.919Z" fill="#fdf2ed"></path>
  <path id="Path_658" data-name="Path 658" d="M119.923,9.144H106V72.737l6.959,6.96v28.179L106,114.836v67.871h13.919Z" fill="none" stroke="#fe4f02" stroke-linejoin="bevel" stroke-width="1"></path>
  <path id="Path_659" data-name="Path 659" d="M90.131,107.876V79.7l-6.96-6.959V9.144H49.039V182.706H83.171v-67.87Z" fill="#fdf2ed"></path>
  <path id="Path_660" data-name="Path 660" d="M90.131,107.876V79.7l-6.96-6.959V9.144H49.039V182.706H83.171v-67.87Z" fill="none" stroke="#fe4f02" stroke-linejoin="bevel" stroke-width="1"></path>
  <rect id="Rectangle_531" data-name="Rectangle 531" width="45.697" height="6.936" transform="translate(30.515 126.145)" fill="#e5c4b7"></rect>
  <rect id="Rectangle_532" data-name="Rectangle 532" width="45.697" height="6.936" transform="translate(30.515 126.145)" fill="none" stroke="#fe4f02" stroke-linejoin="bevel" stroke-width="1"></rect>
  <rect id="Rectangle_533" data-name="Rectangle 533" width="45.697" height="6.936" transform="translate(30.515 59.119)" fill="#e5c4b7"></rect>
  <rect id="Rectangle_534" data-name="Rectangle 534" width="45.697" height="6.936" transform="translate(30.515 59.119)" fill="none" stroke="#fe4f02" stroke-linejoin="bevel" stroke-width="1"></rect>
  <rect id="Rectangle_535" data-name="Rectangle 535" width="4.672" height="18.254" transform="translate(25.843 120.486)" fill="#e5c4b7"></rect>
  <rect id="Rectangle_536" data-name="Rectangle 536" width="4.672" height="18.254" transform="translate(25.843 120.486)" fill="none" stroke="#fe4f02" stroke-linejoin="bevel" stroke-width="1"></rect>
  <rect id="Rectangle_537" data-name="Rectangle 537" width="4.672" height="18.254" transform="translate(25.843 53.46)" fill="#e5c4b7"></rect>
  <rect id="Rectangle_538" data-name="Rectangle 538" width="4.672" height="18.254" transform="translate(25.843 53.46)" fill="none" stroke="#fe4f02" stroke-linejoin="bevel" stroke-width="1"></rect>
  <line id="Line_73" data-name="Line 73" x2="13.753" transform="translate(133.038 94.538)" fill="none" stroke="#fe4f02" stroke-linejoin="bevel" stroke-width="3"></line>
  <path id="Path_661" data-name="Path 661" d="M92.6,72.737l10.934,11.14v21.662L92.6,116.473" fill="none" stroke="#fe4f02" stroke-linejoin="bevel" stroke-width="3"></path>
  <rect id="Rectangle_539" data-name="Rectangle 539" width="50.911" height="10.127" transform="translate(53.711 20.24)" fill="#e5c4b7"></rect>
  <rect id="Rectangle_540" data-name="Rectangle 540" width="50.911" height="10.127" transform="translate(53.711 20.24)" fill="none" stroke="#fe4f02" stroke-linejoin="bevel" stroke-width="1"></rect>
  <rect id="Rectangle_541" data-name="Rectangle 541" width="4.672" height="18.254" transform="translate(48.88 15.986)" fill="#e5c4b7"></rect>
  <rect id="Rectangle_542" data-name="Rectangle 542" width="4.672" height="18.254" transform="translate(48.88 15.986)" fill="none" stroke="#fe4f02" stroke-linejoin="bevel" stroke-width="1"></rect>
  <rect id="Rectangle_543" data-name="Rectangle 543" width="4.974" height="10.127" transform="translate(104.623 20.239)" fill="#e5c4b7"></rect>
  <rect id="Rectangle_544" data-name="Rectangle 544" width="4.974" height="10.127" transform="translate(104.623 20.239)" fill="none" stroke="#fe4f02" stroke-linejoin="bevel" stroke-width="1"></rect>
  <rect id="Rectangle_545" data-name="Rectangle 545" width="50.911" height="10.127" transform="translate(53.711 162.249)" fill="#e5c4b7"></rect>
  <rect id="Rectangle_546" data-name="Rectangle 546" width="50.911" height="10.127" transform="translate(53.711 162.249)" fill="none" stroke="#fe4f02" stroke-linejoin="bevel" stroke-width="1"></rect>
  <rect id="Rectangle_547" data-name="Rectangle 547" width="4.672" height="18.254" transform="translate(48.88 157.995)" fill="#e5c4b7"></rect>
  <rect id="Rectangle_548" data-name="Rectangle 548" width="4.672" height="18.254" transform="translate(48.88 157.995)" fill="none" stroke="#fe4f02" stroke-linejoin="bevel" stroke-width="1"></rect>
  <rect id="Rectangle_549" data-name="Rectangle 549" width="4.974" height="10.127" transform="translate(104.623 162.249)" fill="#e5c4b7"></rect>
  <rect id="Rectangle_550" data-name="Rectangle 550" width="4.974" height="10.127" transform="translate(104.623 162.249)" fill="none" stroke="#fe4f02" stroke-linejoin="bevel" stroke-width="1"></rect>
  <path id="Path_662" data-name="Path 662" d="M25.843,148.038v0Z" fill="#e5c4b7"></path>
  <line id="Line_74" data-name="Line 74" y2="99.639" transform="translate(25.843 48.399)" fill="none" stroke="#fe4f02" stroke-linejoin="bevel" stroke-width="1"></line>
</svg>
