<?xml version="1.0" encoding="UTF-8"?>
<svg xmlns="http://www.w3.org/2000/svg" xmlns:xlink="http://www.w3.org/1999/xlink" id="Group_291" data-name="Group 291" width="179.707" height="207.132" viewBox="0 0 179.707 207.132">
  <defs>
    <clipPath id="clip-path">
      <rect id="Rectangle_632" data-name="Rectangle 632" width="179.707" height="207.132" fill="none"></rect>
    </clipPath>
  </defs>
  <path id="Path_721" data-name="Path 721" d="M95.942,113.66l10.934,11.14v21.662L95.942,157.4" fill="none" stroke="#fe4f02" stroke-linejoin="bevel" stroke-width="3"></path>
  <path id="Path_722" data-name="Path 722" d="M99.142,37.725l7.849,7.6v5.064l-2.342,2.342v1.962l2.69,2.691v5.412l-3.592,3.592v1.725l3.569,3.568V75.7l-8.2,8.2" fill="none" stroke="#fe4f02" stroke-linejoin="bevel" stroke-width="3"></path>
  <path id="Path_723" data-name="Path 723" d="M81.443,84.223V91.3l11.589.387v14.807H81.443v8.118l6.96,6.96v30.078l-6.96,6.959v8.9h9.106v22.41h-.005v9.03H49.149V8.1H94.484V32.217H81.443v8.009l6.96,6.959v4.031L85.851,53.76v2.935L88.4,59v5.071l-2.552,2.543v2.936L88.4,71.859v5.4Z" fill="#fdf2ed"></path>
  <path id="Path_724" data-name="Path 724" d="M81.443,84.223V91.3l11.589.387v14.807H81.443v8.118l6.96,6.96v30.078l-6.96,6.959v8.9h9.106v22.41h-.005v9.03H49.149V8.1H94.484V32.217H81.443v8.009l6.96,6.959v4.031L85.851,53.76v2.935L88.4,59v5.071l-2.552,2.543v2.936L88.4,71.859v5.4Z" fill="none" stroke="#fe4f02" stroke-linejoin="bevel" stroke-width="1"></path>
  <rect id="Rectangle_630" data-name="Rectangle 630" width="18.395" height="206.049" transform="translate(0.5 0.5)" fill="#fdf2ed"></rect>
  <g id="Group_286" data-name="Group 286">
    <g id="Group_285" data-name="Group 285" clip-path="url(#clip-path)">
      <rect id="Rectangle_631" data-name="Rectangle 631" width="18.395" height="206.049" transform="translate(0.5 0.5)" fill="none" stroke="#fe4f02" stroke-linejoin="bevel" stroke-width="1"></rect>
    </g>
  </g>
  <rect id="Rectangle_633" data-name="Rectangle 633" width="29.984" height="35.31" transform="translate(18.896 7.855)" fill="#fdf2ed"></rect>
  <rect id="Rectangle_634" data-name="Rectangle 634" width="29.984" height="35.31" transform="translate(18.896 7.855)" fill="none" stroke="#fe4f02" stroke-linejoin="bevel" stroke-width="1"></rect>
  <rect id="Rectangle_635" data-name="Rectangle 635" width="29.984" height="31.169" transform="translate(18.896 167.663)" fill="#fdf2ed"></rect>
  <rect id="Rectangle_636" data-name="Rectangle 636" width="29.984" height="31.169" transform="translate(18.896 167.663)" fill="none" stroke="#fe4f02" stroke-linejoin="bevel" stroke-width="1"></rect>
  <rect id="Rectangle_637" data-name="Rectangle 637" width="18.816" height="99.639" transform="translate(18.895 55.998)" fill="#fdf2ed"></rect>
  <rect id="Rectangle_638" data-name="Rectangle 638" width="18.816" height="99.639" transform="translate(18.895 55.998)" fill="none" stroke="#fe4f02" stroke-linejoin="bevel" stroke-width="1"></rect>
  <rect id="Rectangle_639" data-name="Rectangle 639" width="51.51" height="6.936" transform="translate(30.515 133.744)" fill="#e5c4b7"></rect>
  <rect id="Rectangle_640" data-name="Rectangle 640" width="51.51" height="6.936" transform="translate(30.515 133.744)" fill="none" stroke="#fe4f02" stroke-linejoin="bevel" stroke-width="1"></rect>
  <rect id="Rectangle_641" data-name="Rectangle 641" width="49.24" height="6.936" transform="translate(30.515 66.718)" fill="#e5c4b7"></rect>
  <rect id="Rectangle_642" data-name="Rectangle 642" width="49.24" height="6.936" transform="translate(30.515 66.718)" fill="none" stroke="#fe4f02" stroke-linejoin="bevel" stroke-width="1"></rect>
  <rect id="Rectangle_643" data-name="Rectangle 643" width="4.672" height="18.254" transform="translate(25.843 128.085)" fill="#e5c4b7"></rect>
  <rect id="Rectangle_644" data-name="Rectangle 644" width="4.672" height="18.254" transform="translate(25.843 128.085)" fill="none" stroke="#fe4f02" stroke-linejoin="bevel" stroke-width="1"></rect>
  <rect id="Rectangle_645" data-name="Rectangle 645" width="4.672" height="18.254" transform="translate(25.843 61.059)" fill="#e5c4b7"></rect>
  <rect id="Rectangle_646" data-name="Rectangle 646" width="4.672" height="18.254" transform="translate(25.843 61.059)" fill="none" stroke="#fe4f02" stroke-linejoin="bevel" stroke-width="1"></rect>
  <rect id="Rectangle_647" data-name="Rectangle 647" width="50.911" height="10.127" transform="translate(53.711 15.219)" fill="#e5c4b7"></rect>
  <rect id="Rectangle_648" data-name="Rectangle 648" width="50.911" height="10.127" transform="translate(53.711 15.219)" fill="none" stroke="#fe4f02" stroke-linejoin="bevel" stroke-width="1"></rect>
  <rect id="Rectangle_649" data-name="Rectangle 649" width="4.672" height="18.254" transform="translate(48.88 10.965)" fill="#e5c4b7"></rect>
  <rect id="Rectangle_650" data-name="Rectangle 650" width="4.672" height="18.254" transform="translate(48.88 10.965)" fill="none" stroke="#fe4f02" stroke-linejoin="bevel" stroke-width="1"></rect>
  <rect id="Rectangle_651" data-name="Rectangle 651" width="4.974" height="10.127" transform="translate(104.623 15.218)" fill="#e5c4b7"></rect>
  <rect id="Rectangle_652" data-name="Rectangle 652" width="4.974" height="10.127" transform="translate(104.623 15.218)" fill="none" stroke="#fe4f02" stroke-linejoin="bevel" stroke-width="1"></rect>
  <rect id="Rectangle_653" data-name="Rectangle 653" width="50.911" height="10.127" transform="translate(53.711 180.484)" fill="#e5c4b7"></rect>
  <rect id="Rectangle_654" data-name="Rectangle 654" width="50.911" height="10.127" transform="translate(53.711 180.484)" fill="none" stroke="#fe4f02" stroke-linejoin="bevel" stroke-width="1"></rect>
  <rect id="Rectangle_655" data-name="Rectangle 655" width="4.672" height="18.254" transform="translate(48.88 176.231)" fill="#e5c4b7"></rect>
  <rect id="Rectangle_656" data-name="Rectangle 656" width="4.672" height="18.254" transform="translate(48.88 176.231)" fill="none" stroke="#fe4f02" stroke-linejoin="bevel" stroke-width="1"></rect>
  <rect id="Rectangle_657" data-name="Rectangle 657" width="4.974" height="10.127" transform="translate(104.623 180.484)" fill="#e5c4b7"></rect>
  <rect id="Rectangle_658" data-name="Rectangle 658" width="4.974" height="10.127" transform="translate(104.623 180.484)" fill="none" stroke="#fe4f02" stroke-linejoin="bevel" stroke-width="1"></rect>
  <line id="Line_77" data-name="Line 77" x2="11.906" transform="translate(106.877 133.677)" fill="none" stroke="#fe4f02" stroke-linejoin="bevel" stroke-width="3"></line>
  <line id="Line_78" data-name="Line 78" x2="11.906" transform="translate(106.877 60.815)" fill="none" stroke="#fe4f02" stroke-linejoin="bevel" stroke-width="3"></line>
  <path id="Path_725" data-name="Path 725" d="M25.843,155.638v0Z" fill="#e5c4b7"></path>
  <line id="Line_79" data-name="Line 79" y2="99.639" transform="translate(25.843 55.998)" fill="none" stroke="#fe4f02" stroke-linejoin="bevel" stroke-width="1"></line>
  <path id="Path_726" data-name="Path 726" d="M139.824,8.1V32.216h-20v8.009l6.96,6.96v4.03l-2.552,2.544V56.7L126.781,59v5.07l-2.552,2.544v2.935l2.552,2.308v5.4l-6.96,6.959V91.3l20,.387v14.807h-20v8.119l6.96,6.959V151.65l-6.96,6.96v8.9h20.006v22.41h-.006v9.031h25.6V8.1Z" fill="#fdf2ed"></path>
  <path id="Path_727" data-name="Path 727" d="M139.824,8.1V32.216h-20v8.009l6.96,6.96v4.03l-2.552,2.544V56.7L126.781,59v5.07l-2.552,2.544v2.935l2.552,2.308v5.4l-6.96,6.959V91.3l20,.387v14.807h-20v8.119l6.96,6.959V151.65l-6.96,6.96v8.9h20.006v22.41h-.006v9.031h25.6V8.1Z" fill="none" stroke="#fe4f02" stroke-linejoin="bevel" stroke-width="1"></path>
  <rect id="Rectangle_659" data-name="Rectangle 659" width="9.736" height="17.874" transform="translate(155.69 176.611)" fill="#e5c4b7"></rect>
  <rect id="Rectangle_660" data-name="Rectangle 660" width="9.736" height="17.874" transform="translate(155.69 176.611)" fill="none" stroke="#fe4f02" stroke-linejoin="bevel" stroke-width="1"></rect>
  <rect id="Rectangle_661" data-name="Rectangle 661" width="9.736" height="17.874" transform="translate(155.69 11.345)" fill="#e5c4b7"></rect>
  <rect id="Rectangle_662" data-name="Rectangle 662" width="9.736" height="17.874" transform="translate(155.69 11.345)" fill="none" stroke="#fe4f02" stroke-linejoin="bevel" stroke-width="1"></rect>
  <rect id="Rectangle_663" data-name="Rectangle 663" width="13.663" height="206.049" transform="translate(165.544 0.583)" fill="#fdf2ed"></rect>
  <g id="Group_288" data-name="Group 288">
    <g id="Group_287" data-name="Group 287" clip-path="url(#clip-path)">
      <rect id="Rectangle_664" data-name="Rectangle 664" width="13.663" height="206.049" transform="translate(165.544 0.583)" fill="none" stroke="#fe4f02" stroke-linejoin="bevel" stroke-width="1"></rect>
    </g>
  </g>
  <path id="Path_728" data-name="Path 728" d="M172.97,87.182v9.941H158.819v10.2H172.97v9.941h6.237V87.182Z" fill="#e5c4b7"></path>
  <g id="Group_290" data-name="Group 290">
    <g id="Group_289" data-name="Group 289" clip-path="url(#clip-path)">
      <path id="Path_729" data-name="Path 729" d="M179.207,117.26V87.182H172.97v9.941H158.819v10.2H172.97v9.941Z" fill="none" stroke="#fe4f02" stroke-linejoin="bevel" stroke-width="1"></path>
    </g>
  </g>
</svg>
