<?xml version="1.0" encoding="UTF-8"?>
<svg xmlns="http://www.w3.org/2000/svg" xmlns:xlink="http://www.w3.org/1999/xlink" id="Group_277" data-name="Group 277" width="205.746" height="191.85" viewBox="0 0 205.746 191.85">
  <defs>
    <clipPath id="clip-path">
      <rect id="Rectangle_555" data-name="Rectangle 555" width="205.747" height="191.85" fill="none"></rect>
    </clipPath>
    <clipPath id="clip-path-3">
      <path id="Path_709" data-name="Path 709" d="M158.824,79.228h-6.237V89.411H138.436V99.855h14.151v10.182h35.987V79.228Z" fill="none"></path>
    </clipPath>
  </defs>
  <path id="Path_663" data-name="Path 663" d="M90.131,114.62,100.385,104.5V84.714L90.131,74.46V9.144H49.039V182.707H90.131Z" fill="#fdf2ed"></path>
  <path id="Path_664" data-name="Path 664" d="M90.131,114.62,100.385,104.5V84.714L90.131,74.46V9.144H49.039V182.707H90.131Z" fill="none" stroke="#fe4f02" stroke-linejoin="bevel" stroke-width="1"></path>
  <path id="Path_665" data-name="Path 665" d="M148.407,9.144H134.488v63.4l6.959,6.96v30.078l-6.959,6.959v66.17h13.919Z" fill="#fdf2ed"></path>
  <path id="Path_666" data-name="Path 666" d="M148.407,9.144H134.488v63.4l6.959,6.96v30.078l-6.959,6.959v66.17h13.919Z" fill="none" stroke="#fe4f02" stroke-linejoin="bevel" stroke-width="1"></path>
  <rect id="Rectangle_551" data-name="Rectangle 551" width="13.663" height="173.563" transform="translate(148.172 9.144)" fill="#fdf2ed"></rect>
  <rect id="Rectangle_552" data-name="Rectangle 552" width="13.663" height="173.563" transform="translate(148.172 9.144)" fill="none" stroke="#fe4f02" stroke-linejoin="bevel" stroke-width="1"></rect>
  <rect id="Rectangle_553" data-name="Rectangle 553" width="13.662" height="190.85" transform="translate(191.585 0.5)" fill="#fdf2ed"></rect>
  <g id="Group_272" data-name="Group 272">
    <g id="Group_271" data-name="Group 271" clip-path="url(#clip-path)">
      <rect id="Rectangle_554" data-name="Rectangle 554" width="13.663" height="190.85" transform="translate(191.584 0.5)" fill="none" stroke="#fe4f02" stroke-linejoin="bevel" stroke-width="1"></rect>
    </g>
  </g>
  <rect id="Rectangle_556" data-name="Rectangle 556" width="18.395" height="190.85" transform="translate(0.5 0.5)" fill="#fdf2ed"></rect>
  <g id="Group_274" data-name="Group 274">
    <g id="Group_273" data-name="Group 273" clip-path="url(#clip-path)">
      <rect id="Rectangle_557" data-name="Rectangle 557" width="18.395" height="190.85" transform="translate(0.5 0.5)" fill="none" stroke="#fe4f02" stroke-linejoin="bevel" stroke-width="1"></rect>
    </g>
  </g>
  <rect id="Rectangle_559" data-name="Rectangle 559" width="29.984" height="35.31" transform="translate(18.896 9.183)" fill="#fdf2ed"></rect>
  <rect id="Rectangle_560" data-name="Rectangle 560" width="29.984" height="35.31" transform="translate(18.896 9.183)" fill="none" stroke="#fe4f02" stroke-linejoin="bevel" stroke-width="1"></rect>
  <rect id="Rectangle_561" data-name="Rectangle 561" width="29.984" height="31.169" transform="translate(18.896 151.538)" fill="#fdf2ed"></rect>
  <rect id="Rectangle_562" data-name="Rectangle 562" width="29.984" height="31.169" transform="translate(18.896 151.538)" fill="none" stroke="#fe4f02" stroke-linejoin="bevel" stroke-width="1"></rect>
  <rect id="Rectangle_563" data-name="Rectangle 563" width="29.984" height="35.31" transform="translate(161.835 9.183)" fill="#fdf2ed"></rect>
  <rect id="Rectangle_564" data-name="Rectangle 564" width="29.984" height="35.31" transform="translate(161.835 9.183)" fill="none" stroke="#fe4f02" stroke-linejoin="bevel" stroke-width="1"></rect>
  <rect id="Rectangle_565" data-name="Rectangle 565" width="29.984" height="31.169" transform="translate(161.6 151.538)" fill="#fdf2ed"></rect>
  <rect id="Rectangle_566" data-name="Rectangle 566" width="29.984" height="31.169" transform="translate(161.6 151.538)" fill="none" stroke="#fe4f02" stroke-linejoin="bevel" stroke-width="1"></rect>
  <rect id="Rectangle_567" data-name="Rectangle 567" width="18.816" height="99.639" transform="translate(18.895 48.399)" fill="#fdf2ed"></rect>
  <rect id="Rectangle_568" data-name="Rectangle 568" width="18.816" height="99.639" transform="translate(18.895 48.399)" fill="none" stroke="#fe4f02" stroke-linejoin="bevel" stroke-width="1"></rect>
  <rect id="Rectangle_569" data-name="Rectangle 569" width="9.736" height="17.874" transform="translate(138.437 159.883)" fill="#e5c4b7"></rect>
  <rect id="Rectangle_570" data-name="Rectangle 570" width="9.736" height="17.874" transform="translate(138.437 159.883)" fill="none" stroke="#fe4f02" stroke-linejoin="bevel" stroke-width="1"></rect>
  <rect id="Rectangle_571" data-name="Rectangle 571" width="9.736" height="17.874" transform="translate(138.437 16.366)" fill="#e5c4b7"></rect>
  <rect id="Rectangle_572" data-name="Rectangle 572" width="9.736" height="17.874" transform="translate(138.437 16.366)" fill="none" stroke="#fe4f02" stroke-linejoin="bevel" stroke-width="1"></rect>
  <rect id="Rectangle_573" data-name="Rectangle 573" width="58.894" height="6.936" transform="translate(30.515 126.145)" fill="#e5c4b7"></rect>
  <rect id="Rectangle_574" data-name="Rectangle 574" width="58.894" height="6.936" transform="translate(30.515 126.145)" fill="none" stroke="#fe4f02" stroke-linejoin="bevel" stroke-width="1"></rect>
  <rect id="Rectangle_575" data-name="Rectangle 575" width="58.894" height="6.936" transform="translate(30.515 59.119)" fill="#e5c4b7"></rect>
  <rect id="Rectangle_576" data-name="Rectangle 576" width="58.894" height="6.936" transform="translate(30.515 59.119)" fill="none" stroke="#fe4f02" stroke-linejoin="bevel" stroke-width="1"></rect>
  <rect id="Rectangle_577" data-name="Rectangle 577" width="4.672" height="18.254" transform="translate(25.843 120.486)" fill="#e5c4b7"></rect>
  <rect id="Rectangle_578" data-name="Rectangle 578" width="4.672" height="18.254" transform="translate(25.843 120.486)" fill="none" stroke="#fe4f02" stroke-linejoin="bevel" stroke-width="1"></rect>
  <rect id="Rectangle_579" data-name="Rectangle 579" width="4.672" height="18.254" transform="translate(25.843 53.46)" fill="#e5c4b7"></rect>
  <rect id="Rectangle_580" data-name="Rectangle 580" width="4.672" height="18.254" transform="translate(25.843 53.46)" fill="none" stroke="#fe4f02" stroke-linejoin="bevel" stroke-width="1"></rect>
  <rect id="Rectangle_581" data-name="Rectangle 581" width="50.911" height="10.127" transform="translate(53.711 20.24)" fill="#e5c4b7"></rect>
  <rect id="Rectangle_582" data-name="Rectangle 582" width="50.911" height="10.127" transform="translate(53.711 20.24)" fill="none" stroke="#fe4f02" stroke-linejoin="bevel" stroke-width="1"></rect>
  <rect id="Rectangle_583" data-name="Rectangle 583" width="4.672" height="18.254" transform="translate(48.88 15.986)" fill="#e5c4b7"></rect>
  <rect id="Rectangle_584" data-name="Rectangle 584" width="4.672" height="18.254" transform="translate(48.88 15.986)" fill="none" stroke="#fe4f02" stroke-linejoin="bevel" stroke-width="1"></rect>
  <rect id="Rectangle_585" data-name="Rectangle 585" width="4.974" height="10.127" transform="translate(104.623 20.239)" fill="#e5c4b7"></rect>
  <rect id="Rectangle_586" data-name="Rectangle 586" width="4.974" height="10.127" transform="translate(104.623 20.239)" fill="none" stroke="#fe4f02" stroke-linejoin="bevel" stroke-width="1"></rect>
  <rect id="Rectangle_587" data-name="Rectangle 587" width="50.911" height="10.127" transform="translate(53.711 162.249)" fill="#e5c4b7"></rect>
  <rect id="Rectangle_588" data-name="Rectangle 588" width="50.911" height="10.127" transform="translate(53.711 162.249)" fill="none" stroke="#fe4f02" stroke-linejoin="bevel" stroke-width="1"></rect>
  <rect id="Rectangle_589" data-name="Rectangle 589" width="4.672" height="18.254" transform="translate(48.88 157.995)" fill="#e5c4b7"></rect>
  <rect id="Rectangle_590" data-name="Rectangle 590" width="4.672" height="18.254" transform="translate(48.88 157.995)" fill="none" stroke="#fe4f02" stroke-linejoin="bevel" stroke-width="1"></rect>
  <rect id="Rectangle_591" data-name="Rectangle 591" width="4.974" height="10.127" transform="translate(104.623 162.249)" fill="#e5c4b7"></rect>
  <rect id="Rectangle_592" data-name="Rectangle 592" width="4.974" height="10.127" transform="translate(104.623 162.249)" fill="none" stroke="#fe4f02" stroke-linejoin="bevel" stroke-width="1"></rect>
  <path id="Path_667" data-name="Path 667" d="M100.545,72.737l10.934,11.14v21.662l-10.934,10.934" fill="none" stroke="#fe4f02" stroke-linejoin="bevel" stroke-width="3"></path>
  <path id="Path_668" data-name="Path 668" d="M25.843,148.038v0Z" fill="#e5c4b7"></path>
  <line id="Line_75" data-name="Line 75" y2="99.639" transform="translate(25.843 48.399)" fill="none" stroke="#fe4f02" stroke-linejoin="bevel" stroke-width="1"></line>
  <path id="Path_669" data-name="Path 669" d="M158.824,79.229h-6.237V89.412H138.436V99.855h14.151v10.183h35.987V79.229Z" fill="#e5c4b7"></path>
  <path id="Path_670" data-name="Path 670" d="M158.824,79.229h-6.237V89.412H138.436V99.855h14.151v10.183h35.987V79.229Z" fill="none" stroke="#fe4f02" stroke-linejoin="bevel" stroke-width="1"></path>
  <g id="Group_276" data-name="Group 276">
    <g id="Group_275" data-name="Group 275" clip-path="url(#clip-path-3)">
      <path id="Path_671" data-name="Path 671" d="M140.363,71.9c.2.218.4.441.61.653q1.039,1.055,2.089,2.1,2.583,2.58,5.171,5.155,3.39,3.387,6.773,6.778c.749.75,1.5,1.5,2.252,2.246q2.8,2.8,5.606,5.609l5.123,5.123,3.791,3.791q2.4,2.4,4.8,4.8l5.235,5.234,4.125,4.123,3.371,3.374a2.43,2.43,0,0,0,.224.178v1.14l-3.11-3.11q-2.685-2.683-5.371-5.367-2.478-2.477-4.954-4.956-1.915-1.916-3.833-3.829-2.915-2.914-5.825-5.831-2.6-2.6-5.208-5.2c-1.216-1.218-2.425-2.443-3.642-3.659q-2.249-2.249-4.5-4.489-2.342-2.337-4.679-4.678-2.5-2.5-5-5-2.094-2.1-4.186-4.193Z" fill="#fe4f02"></path>
      <path id="Path_672" data-name="Path 672" d="M187.607,123c-.222-.236-.438-.478-.666-.708q-1.306-1.318-2.619-2.631-3.308-3.3-6.616-6.6-2.8-2.8-5.6-5.6-3.22-3.222-6.444-6.441-3.243-3.241-6.485-6.485c-1.17-1.172-2.334-2.351-3.505-3.522q-3.771-3.77-7.547-7.535-3.035-3.031-6.069-6.068-1.722-1.72-3.444-3.442a1.623,1.623,0,0,0-.181-.137v-1.14q1.584,1.582,3.166,3.163,3.531,3.53,7.063,7.059,3.261,3.261,6.521,6.525,3.355,3.359,6.716,6.713,2.479,2.478,4.952,4.958,1.785,1.783,3.567,3.567l5.894,5.9q3.165,3.164,6.33,6.327c.712.712,1.416,1.433,2.128,2.145q1.89,1.884,3.782,3.763a1.927,1.927,0,0,1,.153.195Z" fill="#fe4f02"></path>
      <path id="Path_673" data-name="Path 673" d="M143,71.9q1.663,1.668,3.327,3.336,4.656,4.659,9.315,9.317,4.908,4.908,9.818,9.814,3.845,3.846,7.688,7.7,3.762,3.762,7.529,7.521,4.408,4.407,8.815,8.817a.506.506,0,0,0,.045.036v1.1q-1.122-1.126-2.247-2.252c-.968-.966-1.941-1.928-2.908-2.9q-2.064-2.062-4.122-4.13-2.847-2.847-5.7-5.69l-7.4-7.4q-4.188-4.187-8.376-8.374-5.751-5.751-11.5-11.5-1.46-1.459-2.918-2.917-1.234-1.236-2.466-2.476Z" fill="#fe4f02"></path>
      <path id="Path_674" data-name="Path 674" d="M184.974,123l-3.341-3.35q-2.7-2.7-5.4-5.4-3.348-3.345-6.7-6.688-3.907-3.908-7.812-7.82-3.312-3.312-6.625-6.622-3.819-3.816-7.638-7.633-3.389-3.387-6.775-6.775-1.125-1.124-2.251-2.244v-1.1q1.172,1.173,2.345,2.347,2.961,2.957,5.923,5.912,3.954,3.951,7.9,7.9l7.555,7.553q3.527,3.529,7.052,7.059,3.723,3.723,7.448,7.44,3.321,3.319,6.639,6.641,1.388,1.389,2.771,2.781Z" fill="#fe4f02"></path>
      <path id="Path_675" data-name="Path 675" d="M182.3,123q-.952-.963-1.9-1.924-2.073-2.079-4.151-4.152-2.589-2.589-5.18-5.176-4.013-4.013-8.023-8.026-3.921-3.922-7.845-7.842l-9.163-9.162q-3.615-3.615-7.229-7.232c-.12-.12-.246-.234-.369-.351v-1.1q1.246,1.238,2.491,2.476,3.645,3.64,7.288,7.285l7.619,7.621q2.491,2.492,4.984,4.983l8.242,8.245,6.275,6.273,7.923,7.922c.051.05.1.107.144.16Z" fill="#fe4f02"></path>
      <path id="Path_676" data-name="Path 676" d="M145.669,71.9q.862.872,1.727,1.742,2.883,2.891,5.769,5.78,3.525,3.526,7.057,7.047,3.957,3.954,7.911,7.911l7.3,7.3,6.7,6.708,7.332,7.328a.608.608,0,0,0,.063.047v1.1q-1.113-1.107-2.226-2.214-2.779-2.773-5.555-5.549l-6.3-6.3q-3.594-3.594-7.19-7.187-3.026-3.025-6.049-6.053l-8.175-8.176q-3.846-3.845-7.689-7.689-.894-.9-1.783-1.8Z" fill="#fe4f02"></path>
      <path id="Path_677" data-name="Path 677" d="M179.629,123c-.343-.35-.682-.7-1.029-1.05q-3.1-3.1-6.207-6.206l-5.486-5.484q-2.93-2.93-5.858-5.861-2.763-2.763-5.527-5.526-4.31-4.311-8.619-8.623-3.222-3.222-6.445-6.44-.945-.945-1.889-1.888c-.041-.041-.088-.076-.132-.114v-1.1c.549.542,1.1,1.082,1.645,1.628q3.079,3.072,6.155,6.148,3.027,3.027,6.052,6.056,4.368,4.366,8.736,8.732,2.972,2.973,5.936,5.95,3.506,3.507,7.016,7.008,3.313,3.311,6.623,6.624c.046.046.087.1.13.146Z" fill="#fe4f02"></path>
      <path id="Path_678" data-name="Path 678" d="M148.342,71.9c.5.5.988,1.009,1.487,1.508q2.616,2.619,5.235,5.235l5.528,5.525,5.19,5.192q2.451,2.451,4.9,4.9,3.859,3.859,7.718,7.722,3.228,3.228,6.459,6.454,2.271,2.27,4.54,4.541c.041.041.088.075.133.113v1.1c-.563-.556-1.128-1.11-1.688-1.67q-4.057-4.052-8.112-8.107c-1.337-1.338-2.667-2.682-4-4.019q-4.16-4.158-8.324-8.311-4.438-4.436-8.872-8.875l-8.1-8.092q-1.569-1.569-3.135-3.142a.9.9,0,0,1-.059-.076Z" fill="#fe4f02"></path>
      <path id="Path_679" data-name="Path 679" d="M151.014,71.9c.438.447.875.9,1.316,1.341q1.452,1.464,2.908,2.922,2.283,2.281,4.572,4.559c1.138,1.138,2.267,2.284,3.406,3.421q3.109,3.108,6.225,6.21,2.9,2.9,5.8,5.8,3.351,3.351,6.705,6.7c.749.75,1.489,1.509,2.239,2.258q2.449,2.45,4.908,4.891c.142.142.292.276.439.414v1.1c-.388-.379-.78-.754-1.163-1.137q-3.694-3.693-7.386-7.388l-3.763-3.763q-4.357-4.36-8.715-8.72-3.437-3.437-6.876-6.869-4.6-4.6-9.19-9.195-1.187-1.187-2.376-2.371c-.055-.055-.1-.118-.151-.177Z" fill="#fe4f02"></path>
      <path id="Path_680" data-name="Path 680" d="M176.956,123c-.43-.438-.857-.878-1.289-1.314q-1.19-1.2-2.382-2.393-1.992-1.991-3.988-3.977-3.922-3.919-7.841-7.843-1.242-1.244-2.485-2.484l-7.536-7.535q-3.421-3.422-6.844-6.841l-6.064-6.063a.764.764,0,0,0-.09-.069v-1.1c.4.393.806.782,1.2,1.178q3.424,3.421,6.846,6.844,3.186,3.188,6.37,6.377,3.416,3.416,6.834,6.827,2.916,2.916,5.829,5.835,3.525,3.526,7.053,7.05,2.681,2.679,5.36,5.359a1.793,1.793,0,0,1,.124.15Z" fill="#fe4f02"></path>
      <path id="Path_681" data-name="Path 681" d="M174.283,123c-.109-.12-.214-.244-.328-.359q-1.331-1.333-2.666-2.665-6.764-6.763-13.526-13.528c-.768-.768-1.529-1.542-2.3-2.31q-2.919-2.915-5.84-5.826-3.212-3.207-6.417-6.417-2.325-2.325-4.652-4.649a.977.977,0,0,0-.12-.092v-1.1c.295.285.594.566.885.855.7.7,1.4,1.4,2.1,2.1l8.021,8.019q3.192,3.192,6.387,6.384c.735.735,1.462,1.478,2.2,2.213q3.117,3.115,6.237,6.227,3.006,3,6.009,6.008,2.511,2.509,5.021,5.023c.035.036.062.08.094.12Z" fill="#fe4f02"></path>
      <path id="Path_682" data-name="Path 682" d="M153.687,71.9c.285.3.566.6.856.886q1.36,1.374,2.727,2.742,3.557,3.554,7.117,7.1,3.038,3.033,6.07,6.069l10.389,10.385q2.063,2.064,4.123,4.128l4.47,4.469a.671.671,0,0,0,.094.063v1.1c-.36-.35-.725-.7-1.08-1.051-1.087-1.087-2.168-2.18-3.255-3.268-.9-.9-1.808-1.8-2.712-2.7q-.645-.644-1.288-1.29c-.428-.428-.86-.853-1.283-1.286-.5-.51-.984-1.034-1.488-1.539-.425-.426-.873-.828-1.3-1.251-.38-.375-.742-.768-1.118-1.147-.254-.255-.523-.494-.778-.748s-.5-.533-.765-.792c-.541-.537-1.092-1.064-1.631-1.6-.668-.665-1.326-1.338-1.992-2q-3.36-3.36-6.723-6.716l-6.252-6.246q-2.478-2.475-4.954-4.951c-.115-.114-.218-.239-.327-.359Z" fill="#fe4f02"></path>
      <path id="Path_683" data-name="Path 683" d="M171.61,123c-.288-.3-.571-.605-.865-.9q-2.358-2.362-4.72-4.721-1.756-1.756-3.516-3.511l-4.913-4.918-9.429-9.428-8.65-8.651q-.486-.486-.974-.97a.757.757,0,0,0-.107-.075v-1.1c.208.195.421.386.624.588q1.469,1.461,2.931,2.927,3.3,3.3,6.591,6.6,3.229,3.229,6.461,6.456,3.854,3.852,7.705,7.706,3.235,3.236,6.473,6.47c.624.625,1.24,1.258,1.864,1.882.486.487.979.966,1.466,1.45a2.494,2.494,0,0,1,.16.194Z" fill="#fe4f02"></path>
      <path id="Path_684" data-name="Path 684" d="M156.36,71.9a2.43,2.43,0,0,0,.157.192q2.886,2.889,5.776,5.776,2.916,2.917,5.829,5.835,3.027,3.027,6.056,6.052,3.014,3.015,6.024,6.029,2.529,2.527,5.059,5.05,2.035,2.034,4.067,4.071a2.607,2.607,0,0,0,.206.169v1.1c-.223-.21-.45-.415-.666-.631-.809-.81-1.612-1.626-2.422-2.435q-2.73-2.729-5.465-5.451-3.683-3.678-7.363-7.359l-5.858-5.861L161.028,77.7q-.9-.9-1.809-1.8-1.909-1.908-3.816-3.818a2.088,2.088,0,0,1-.144-.179Z" fill="#fe4f02"></path>
      <path id="Path_685" data-name="Path 685" d="M168.938,123c-.2-.213-.39-.433-.6-.639q-3.553-3.555-7.11-7.106-4.729-4.728-9.455-9.456-2.527-2.527-5.049-5.058-4.039-4.041-8.082-8.079a2.259,2.259,0,0,0-.21-.163v-1.14q2.193,2.193,4.386,4.385,2.173,2.171,4.345,4.343,2.771,2.768,5.539,5.535,3.384,3.387,6.769,6.776,2.018,2.019,4.041,4.035l5.16,5.165,1.4,1.4Z" fill="#fe4f02"></path>
      <path id="Path_686" data-name="Path 686" d="M158.993,71.9q2.63,2.632,5.259,5.265,3.261,3.263,6.525,6.525l6.763,6.76,3.943,3.943q3.935,3.936,7.869,7.871a1.621,1.621,0,0,0,.181.137v1.14l-5.551-5.551q-2.721-2.718-5.443-5.436-3.095-3.1-6.186-6.193-2.3-2.3-4.6-4.591-2.582-2.582-5.16-5.166l-4.705-4.7Z" fill="#fe4f02"></path>
      <path id="Path_687" data-name="Path 687" d="M161.666,71.9q1.295,1.3,2.588,2.6,2.406,2.411,4.816,4.816,2.577,2.574,5.153,5.146,3.3,3.3,6.591,6.592l6.621,6.62q1.049,1.047,2.1,2.091v1.1q-1.634-1.629-3.267-3.259-2.259-2.256-4.514-4.513l-5.846-5.848q-2.39-2.388-4.779-4.776-1.547-1.549-3.092-3.1-2.4-2.394-4.794-4.787-1.339-1.339-2.676-2.684Z" fill="#fe4f02"></path>
      <path id="Path_688" data-name="Path 688" d="M166.3,123q-1.308-1.314-2.617-2.628-1.908-1.91-3.819-3.815-2.193-2.191-4.383-4.385-1.929-1.93-3.856-3.861-2.233-2.235-4.471-4.468-2.484-2.484-4.967-4.971-1.873-1.872-3.754-3.739v-1.1q1.55,1.546,3.1,3.092,2.084,2.082,4.166,4.166l6.845,6.847q3.035,3.034,6.071,6.066l7.135,7.141q.826.826,1.65,1.656Z" fill="#fe4f02"></path>
      <path id="Path_689" data-name="Path 689" d="M164.339,71.9c.506.511,1.01,1.024,1.517,1.533q1.827,1.836,3.657,3.67,2.032,2.032,4.07,4.059c1.133,1.133,2.259,2.273,3.392,3.406q2.478,2.475,4.962,4.945c.921.92,1.835,1.847,2.755,2.767q1.915,1.914,3.836,3.824c.334.332.67.661,1.006.991v1.1q-1-.987-1.99-1.976-1.64-1.637-3.276-3.276-3.809-3.81-7.619-7.618l-6.73-6.732-6.51-6.505c-.06-.06-.114-.125-.171-.188Z" fill="#fe4f02"></path>
      <path id="Path_690" data-name="Path 690" d="M163.631,123c-.584-.59-1.167-1.182-1.752-1.77q-1.834-1.843-3.671-3.683-2.437-2.435-4.88-4.863-2.74-2.739-5.476-5.482l-3.358-3.358q-2.706-2.706-5.412-5.411c-.212-.212-.43-.418-.646-.628V96.7q1.1,1.092,2.2,2.184,1.7,1.7,3.4,3.4,2.679,2.677,5.357,5.357,2.721,2.72,5.44,5.44,1.886,1.889,3.768,3.78,2.888,2.886,5.778,5.768c.12.12.235.245.353.367Z" fill="#fe4f02"></path>
      <path id="Path_691" data-name="Path 691" d="M167.012,71.9c.472.48.942.962,1.416,1.44q1.3,1.309,2.606,2.617,3.229,3.228,6.464,6.453,3.9,3.9,7.8,7.8l4.054,4.056c.055.055.118.1.177.153v1.1c-.411-.4-.824-.8-1.231-1.208q-1.342-1.336-2.679-2.677-1.8-1.8-3.6-3.609-2.58-2.58-5.163-5.159l-5.715-5.716-5.034-5.035c-.069-.069-.13-.145-.2-.218Z" fill="#fe4f02"></path>
      <path id="Path_692" data-name="Path 692" d="M160.959,123c-.477-.485-.952-.971-1.43-1.454q-1.236-1.248-2.476-2.492-3.562-3.558-7.128-7.113-3.39-3.384-6.775-6.773l-4.552-4.551c-.05-.05-.107-.093-.161-.139v-1.1c.511.5,1.025,1.006,1.534,1.514q2.021,2.016,4.038,4.037l3.676,3.676q3.364,3.363,6.729,6.726,3.768,3.767,7.532,7.535c.041.042.076.089.114.134Z" fill="#fe4f02"></path>
      <path id="Path_693" data-name="Path 693" d="M158.286,123c-.335-.347-.665-.7-1.006-1.039-.9-.9-1.8-1.791-2.694-2.687q-1.769-1.767-3.536-3.536-2.4-2.406-4.807-4.815-2.461-2.461-4.927-4.919l-2.8-2.8a.536.536,0,0,0-.077-.055v-1.1c.411.4.826.8,1.232,1.206.828.829,1.649,1.665,2.478,2.493q5.148,5.142,10.3,10.282,1.647,1.646,3.291,3.292,1.77,1.771,3.539,3.542c.041.041.074.09.111.135Z" fill="#fe4f02"></path>
      <path id="Path_694" data-name="Path 694" d="M169.684,71.9c.327.337.651.676.98,1.009q1.049,1.06,2.1,2.116,2.823,2.82,5.65,5.638,2.43,2.424,4.857,4.85,1.609,1.608,3.215,3.219,1.455,1.457,2.911,2.911a1.549,1.549,0,0,0,.136.106v1.1c-.443-.435-.89-.866-1.33-1.305q-3.71-3.7-7.416-7.415l-7.512-7.513q-2.271-2.27-4.541-4.54c-.055-.055-.1-.118-.151-.177Z" fill="#fe4f02"></path>
      <path id="Path_695" data-name="Path 695" d="M172.357,71.9c.256.268.507.542.768.8q3.012,3.013,6.027,6.024l9.01,9.009q.625.625,1.25,1.249a1.085,1.085,0,0,0,.121.09v1.1c-.263-.252-.532-.5-.79-.757q-2.639-2.632-5.273-5.269l-6.505-6.51q-1.755-1.756-3.511-3.511-1.054-1.053-2.106-2.11a1.228,1.228,0,0,1-.092-.12Z" fill="#fe4f02"></path>
      <path id="Path_696" data-name="Path 696" d="M155.613,123c-.261-.273-.517-.55-.783-.817q-3.282-3.285-6.566-6.568-2.79-2.79-5.582-5.579-2.042-2.04-4.082-4.08a2.043,2.043,0,0,0-.163-.132v-1.1c.263.252.53.5.788.756q3.192,3.189,6.381,6.381l4.953,4.954q2.109,2.109,4.219,4.217.888.888,1.775,1.776c.059.059.107.128.161.193Z" fill="#fe4f02"></path>
      <path id="Path_697" data-name="Path 697" d="M174.99,71.9l5.273,5.274,6.6,6.6,2.665,2.664v1.061c-.1-.084-.2-.163-.291-.254q-3.728-3.728-7.451-7.457-3.865-3.865-7.733-7.729a1.725,1.725,0,0,1-.129-.164Z" fill="#fe4f02"></path>
      <path id="Path_698" data-name="Path 698" d="M152.98,123l-5.73-5.732q-3.561-3.56-7.121-7.117-.848-.846-1.692-1.694v-1.061c.148.135.3.264.443.406q3.678,3.672,7.352,7.347,3.849,3.847,7.694,7.7a1.328,1.328,0,0,1,.115.153Z" fill="#fe4f02"></path>
      <path id="Path_699" data-name="Path 699" d="M177.663,71.9l3.94,3.946q3.3,3.306,6.609,6.609c.439.439.881.877,1.321,1.315v1.1l-6.7-6.7-6.27-6.271Z" fill="#fe4f02"></path>
      <path id="Path_700" data-name="Path 700" d="M150.307,123q-1.9-1.9-3.8-3.807-3.642-3.646-7.287-7.291c-.259-.259-.521-.515-.782-.772v-1.1q3.122,3.12,6.244,6.241l5.149,5.144q.79.791,1.578,1.586Z" fill="#fe4f02"></path>
      <path id="Path_701" data-name="Path 701" d="M147.634,123q-1.226-1.231-2.45-2.461-1.476-1.479-2.956-2.954-1.895-1.892-3.791-3.782v-1.1l2.5,2.493q1.008,1,2.013,2.011l3.662,3.667q.991.993,1.986,1.984c.046.046.089.095.134.143Z" fill="#fe4f02"></path>
      <path id="Path_702" data-name="Path 702" d="M180.336,71.9l2.88,2.892c.9.9,1.794,1.812,2.7,2.713q1.806,1.8,3.621,3.592v1.1q-1-1-2-1.993-1.827-1.824-3.652-3.65-1.479-1.478-2.955-2.958-.846-.848-1.689-1.7Z" fill="#fe4f02"></path>
      <path id="Path_703" data-name="Path 703" d="M183.009,71.9q.742.753,1.486,1.5,1.4,1.412,2.807,2.82c.74.737,1.487,1.467,2.232,2.2v1.1q-1.072-1.063-2.144-2.128-1.207-1.2-2.411-2.412-1.5-1.5-3-3a1.065,1.065,0,0,1-.076-.088Z" fill="#fe4f02"></path>
      <path id="Path_704" data-name="Path 704" d="M144.961,123q-.75-.759-1.5-1.517c-.888-.9-1.774-1.793-2.667-2.684-.781-.779-1.571-1.549-2.358-2.324v-1.1c.738.732,1.478,1.462,2.212,2.2.906.906,1.805,1.818,2.71,2.724q1.324,1.326,2.655,2.644c.018.018.032.04.049.06Z" fill="#fe4f02"></path>
      <path id="Path_705" data-name="Path 705" d="M189.533,76.854c-.484-.477-.97-.952-1.453-1.432q-1.676-1.669-3.347-3.343c-.055-.055-.1-.118-.152-.177h1.1c.033.039.062.082.1.118q1.267,1.272,2.538,2.54c.4.4.81.8,1.216,1.193Z" fill="#fe4f02"></path>
      <path id="Path_706" data-name="Path 706" d="M138.437,118.046c.5.5,1.01.987,1.509,1.486q1.634,1.629,3.261,3.263c.064.064.122.135.182.2h-1.1a1.042,1.042,0,0,0-.071-.09q-1.3-1.3-2.607-2.61c-.388-.387-.782-.768-1.174-1.151Z" fill="#fe4f02"></path>
      <path id="Path_707" data-name="Path 707" d="M138.437,120.719c.378.368.76.731,1.132,1.1s.766.783,1.148,1.176h-1.1l-1.179-1.179Z" fill="#fe4f02"></path>
      <path id="Path_708" data-name="Path 708" d="M189.533,74.182c-.4-.392-.806-.78-1.2-1.176-.364-.363-.719-.735-1.078-1.1h1.1l1.179,1.179Z" fill="#fe4f02"></path>
    </g>
  </g>
</svg>
