<?xml version="1.0" encoding="UTF-8"?>
<svg xmlns="http://www.w3.org/2000/svg" xmlns:xlink="http://www.w3.org/1999/xlink" id="Group_284" data-name="Group 284" width="170.602" height="207.049" viewBox="0 0 170.602 207.049">
  <defs>
    <clipPath id="clip-path">
      <rect id="Rectangle_595" data-name="Rectangle 595" width="170.602" height="207.049" fill="none"></rect>
    </clipPath>
  </defs>
  <path id="Path_710" data-name="Path 710" d="M128.226,8.1V51.5h5.907V74.085h-5.907v4.386h5.907v22.8h-5.907v4.387h5.907v22.582h-5.907v4.386h5.907v22.8h-5.907v43.4h28.213V8.1Z" fill="#fdf2ed"></path>
  <path id="Path_711" data-name="Path 711" d="M128.226,8.1V51.5h5.907V74.085h-5.907v4.386h5.907v22.8h-5.907v4.387h5.907v22.582h-5.907v4.386h5.907v22.8h-5.907v43.4h28.213V8.1Z" fill="none" stroke="#fe4f02" stroke-linejoin="bevel" stroke-width="1"></path>
  <path id="Path_712" data-name="Path 712" d="M87.628,155.43v-4.212H92.19V134.873H87.628v-2.245h7.733v-4.387H87.628v-2.117H92.19V109.779H87.628v-4.12h7.733v-4.386H87.628V97.06H92.19V80.716H87.628V78.47h7.733V74.084H87.628V71.966H92.19V55.622H87.628V51.5h7.733V8.1H48.88V198.832H95.361v-43.4Z" fill="#fdf2ed"></path>
  <path id="Path_713" data-name="Path 713" d="M87.628,155.43v-4.212H92.19V134.873H87.628v-2.245h7.733v-4.387H87.628v-2.117H92.19V109.779H87.628v-4.12h7.733v-4.386H87.628V97.06H92.19V80.716H87.628V78.47h7.733V74.084H87.628V71.966H92.19V55.622H87.628V51.5h7.733V8.1H48.88V198.832H95.361v-43.4Z" fill="none" stroke="#fe4f02" stroke-linejoin="bevel" stroke-width="1"></path>
  <rect id="Rectangle_593" data-name="Rectangle 593" width="13.663" height="206.049" transform="translate(156.439 0.5)" fill="#fdf2ed"></rect>
  <g id="Group_279" data-name="Group 279">
    <g id="Group_278" data-name="Group 278" clip-path="url(#clip-path)">
      <rect id="Rectangle_594" data-name="Rectangle 594" width="13.663" height="206.049" transform="translate(156.439 0.5)" fill="none" stroke="#fe4f02" stroke-linejoin="bevel" stroke-width="1"></rect>
    </g>
  </g>
  <rect id="Rectangle_596" data-name="Rectangle 596" width="18.395" height="206.049" transform="translate(0.5 0.5)" fill="#fdf2ed"></rect>
  <g id="Group_281" data-name="Group 281">
    <g id="Group_280" data-name="Group 280" clip-path="url(#clip-path)">
      <rect id="Rectangle_597" data-name="Rectangle 597" width="18.395" height="206.049" transform="translate(0.5 0.5)" fill="none" stroke="#fe4f02" stroke-linejoin="bevel" stroke-width="1"></rect>
    </g>
  </g>
  <rect id="Rectangle_599" data-name="Rectangle 599" width="29.984" height="35.31" transform="translate(18.896 16.782)" fill="#fdf2ed"></rect>
  <rect id="Rectangle_600" data-name="Rectangle 600" width="29.984" height="35.31" transform="translate(18.896 16.782)" fill="none" stroke="#fe4f02" stroke-linejoin="bevel" stroke-width="1"></rect>
  <rect id="Rectangle_601" data-name="Rectangle 601" width="29.984" height="31.169" transform="translate(18.896 159.137)" fill="#fdf2ed"></rect>
  <rect id="Rectangle_602" data-name="Rectangle 602" width="29.984" height="31.169" transform="translate(18.896 159.137)" fill="none" stroke="#fe4f02" stroke-linejoin="bevel" stroke-width="1"></rect>
  <rect id="Rectangle_603" data-name="Rectangle 603" width="18.816" height="99.639" transform="translate(18.895 55.998)" fill="#fdf2ed"></rect>
  <rect id="Rectangle_604" data-name="Rectangle 604" width="18.816" height="99.639" transform="translate(18.895 55.998)" fill="none" stroke="#fe4f02" stroke-linejoin="bevel" stroke-width="1"></rect>
  <path id="Path_714" data-name="Path 714" d="M163.865,87.1V97.04H149.714v10.2h14.151v9.941H170.1V87.1Z" fill="#e5c4b7"></path>
  <g id="Group_283" data-name="Group 283">
    <g id="Group_282" data-name="Group 282" clip-path="url(#clip-path)">
      <path id="Path_715" data-name="Path 715" d="M170.1,117.177V87.1h-6.237V97.04H149.714v10.2h14.151v9.941Z" fill="none" stroke="#fe4f02" stroke-linejoin="bevel" stroke-width="1"></path>
    </g>
  </g>
  <rect id="Rectangle_606" data-name="Rectangle 606" width="9.736" height="17.874" transform="translate(146.704 169.248)" fill="#e5c4b7"></rect>
  <rect id="Rectangle_607" data-name="Rectangle 607" width="9.736" height="17.874" transform="translate(146.704 169.248)" fill="none" stroke="#fe4f02" stroke-linejoin="bevel" stroke-width="1"></rect>
  <rect id="Rectangle_608" data-name="Rectangle 608" width="9.736" height="17.874" transform="translate(146.704 20.092)" fill="#e5c4b7"></rect>
  <rect id="Rectangle_609" data-name="Rectangle 609" width="9.736" height="17.874" transform="translate(146.704 20.092)" fill="none" stroke="#fe4f02" stroke-linejoin="bevel" stroke-width="1"></rect>
  <rect id="Rectangle_610" data-name="Rectangle 610" width="46.352" height="6.936" transform="translate(30.515 133.744)" fill="#e5c4b7"></rect>
  <rect id="Rectangle_611" data-name="Rectangle 611" width="46.352" height="6.936" transform="translate(30.515 133.744)" fill="none" stroke="#fe4f02" stroke-linejoin="bevel" stroke-width="1"></rect>
  <rect id="Rectangle_612" data-name="Rectangle 612" width="46.352" height="6.936" transform="translate(30.515 66.718)" fill="#e5c4b7"></rect>
  <rect id="Rectangle_613" data-name="Rectangle 613" width="46.352" height="6.936" transform="translate(30.515 66.718)" fill="none" stroke="#fe4f02" stroke-linejoin="bevel" stroke-width="1"></rect>
  <rect id="Rectangle_614" data-name="Rectangle 614" width="4.672" height="18.254" transform="translate(25.843 128.085)" fill="#e5c4b7"></rect>
  <rect id="Rectangle_615" data-name="Rectangle 615" width="4.672" height="18.254" transform="translate(25.843 128.085)" fill="none" stroke="#fe4f02" stroke-linejoin="bevel" stroke-width="1"></rect>
  <rect id="Rectangle_616" data-name="Rectangle 616" width="4.672" height="18.254" transform="translate(25.843 61.059)" fill="#e5c4b7"></rect>
  <rect id="Rectangle_617" data-name="Rectangle 617" width="4.672" height="18.254" transform="translate(25.843 61.059)" fill="none" stroke="#fe4f02" stroke-linejoin="bevel" stroke-width="1"></rect>
  <rect id="Rectangle_618" data-name="Rectangle 618" width="50.911" height="10.127" transform="translate(53.711 23.966)" fill="#e5c4b7"></rect>
  <rect id="Rectangle_619" data-name="Rectangle 619" width="50.911" height="10.127" transform="translate(53.711 23.966)" fill="none" stroke="#fe4f02" stroke-linejoin="bevel" stroke-width="1"></rect>
  <rect id="Rectangle_620" data-name="Rectangle 620" width="4.672" height="18.254" transform="translate(48.88 19.712)" fill="#e5c4b7"></rect>
  <rect id="Rectangle_621" data-name="Rectangle 621" width="4.672" height="18.254" transform="translate(48.88 19.712)" fill="none" stroke="#fe4f02" stroke-linejoin="bevel" stroke-width="1"></rect>
  <rect id="Rectangle_622" data-name="Rectangle 622" width="4.974" height="10.127" transform="translate(104.623 23.965)" fill="#e5c4b7"></rect>
  <rect id="Rectangle_623" data-name="Rectangle 623" width="4.974" height="10.127" transform="translate(104.623 23.965)" fill="none" stroke="#fe4f02" stroke-linejoin="bevel" stroke-width="1"></rect>
  <rect id="Rectangle_624" data-name="Rectangle 624" width="50.911" height="10.127" transform="translate(53.711 173.122)" fill="#e5c4b7"></rect>
  <rect id="Rectangle_625" data-name="Rectangle 625" width="50.911" height="10.127" transform="translate(53.711 173.122)" fill="none" stroke="#fe4f02" stroke-linejoin="bevel" stroke-width="1"></rect>
  <rect id="Rectangle_626" data-name="Rectangle 626" width="4.672" height="18.254" transform="translate(48.88 168.868)" fill="#e5c4b7"></rect>
  <rect id="Rectangle_627" data-name="Rectangle 627" width="4.672" height="18.254" transform="translate(48.88 168.868)" fill="none" stroke="#fe4f02" stroke-linejoin="bevel" stroke-width="1"></rect>
  <rect id="Rectangle_628" data-name="Rectangle 628" width="4.974" height="10.127" transform="translate(104.623 173.121)" fill="#e5c4b7"></rect>
  <rect id="Rectangle_629" data-name="Rectangle 629" width="4.974" height="10.127" transform="translate(104.623 173.121)" fill="none" stroke="#fe4f02" stroke-linejoin="bevel" stroke-width="1"></rect>
  <path id="Path_716" data-name="Path 716" d="M25.843,155.637v0Z" fill="#e5c4b7"></path>
  <line id="Line_76" data-name="Line 76" y2="99.639" transform="translate(25.843 55.999)" fill="none" stroke="#fe4f02" stroke-linejoin="bevel" stroke-width="1"></line>
  <path id="Path_717" data-name="Path 717" d="M98.715,55.622V51.5H110.53V74.084H98.715V71.967h4.562V55.622Z" fill="#fe4f02"></path>
  <path id="Path_718" data-name="Path 718" d="M98.715,97.045v4.12H110.53V78.583H98.715V80.7h4.562V97.045Z" fill="#fe4f02"></path>
  <path id="Path_719" data-name="Path 719" d="M98.715,109.784v-4.12H110.53v22.582H98.715v-2.117h4.562V109.784Z" fill="#fe4f02"></path>
  <path id="Path_720" data-name="Path 720" d="M98.715,151.207v4.12H110.53V132.745H98.715v2.117h4.562v16.345Z" fill="#fe4f02"></path>
</svg>
