<?xml version="1.0" encoding="UTF-8"?>
<svg xmlns="http://www.w3.org/2000/svg" xmlns:xlink="http://www.w3.org/1999/xlink" id="Group_298" data-name="Group 298" width="270.895" height="191.85" viewBox="0 0 270.895 191.85">
  <defs>
    <clipPath id="clip-path">
      <rect id="Rectangle_669" data-name="Rectangle 669" width="270.894" height="191.85" fill="none"></rect>
    </clipPath>
  </defs>
  <path id="Path_730" data-name="Path 730" d="M244.893,9.183V31.837h-9.106v8.472l6.959,6.959V77.346l-6.959,6.96v23.1l6.959,6.96v30.078l-6.959,6.96v8.9h9.106v22.41h11.839V9.183Z" fill="#fdf2ed"></path>
  <path id="Path_731" data-name="Path 731" d="M244.893,9.183V31.837h-9.106v8.472l6.959,6.959V77.346l-6.959,6.96v23.1l6.959,6.96v30.078l-6.959,6.96v8.9h9.106v22.41h11.839V9.183Z" fill="none" stroke="#fe4f02" stroke-linejoin="bevel" stroke-width="1"></path>
  <rect id="Rectangle_667" data-name="Rectangle 667" width="13.663" height="190.85" transform="translate(256.731 0.5)" fill="#fdf2ed"></rect>
  <g id="Group_293" data-name="Group 293">
    <g id="Group_292" data-name="Group 292" clip-path="url(#clip-path)">
      <rect id="Rectangle_668" data-name="Rectangle 668" width="13.663" height="190.85" transform="translate(256.732 0.5)" fill="none" stroke="#fe4f02" stroke-linejoin="bevel" stroke-width="1"></rect>
    </g>
  </g>
  <path id="Path_732" data-name="Path 732" d="M264.157,79.5V89.44H250.006v10.2h14.151v9.941h6.237V79.5Z" fill="#e5c4b7"></path>
  <g id="Group_295" data-name="Group 295">
    <g id="Group_294" data-name="Group 294" clip-path="url(#clip-path)">
      <path id="Path_733" data-name="Path 733" d="M270.394,109.577V79.5h-6.237V89.44H250.006v10.2h14.151v9.941Z" fill="none" stroke="#fe4f02" stroke-linejoin="bevel" stroke-width="1"></path>
    </g>
  </g>
  <rect id="Rectangle_671" data-name="Rectangle 671" width="9.736" height="17.874" transform="translate(246.996 161.649)" fill="#e5c4b7"></rect>
  <rect id="Rectangle_672" data-name="Rectangle 672" width="9.736" height="17.874" transform="translate(246.996 161.649)" fill="none" stroke="#fe4f02" stroke-linejoin="bevel" stroke-width="1"></rect>
  <rect id="Rectangle_673" data-name="Rectangle 673" width="9.736" height="17.874" transform="translate(246.996 12.493)" fill="#e5c4b7"></rect>
  <rect id="Rectangle_674" data-name="Rectangle 674" width="9.736" height="17.874" transform="translate(246.996 12.493)" fill="none" stroke="#fe4f02" stroke-linejoin="bevel" stroke-width="1"></rect>
  <path id="Path_734" data-name="Path 734" d="M144.6,9.183V31.837h-9.106v8.472l6.959,6.959V77.346l-6.959,6.96v23.1l6.959,6.96v30.078l-6.959,6.96v8.9H144.6v22.41h11.839V9.183Z" fill="#fdf2ed"></path>
  <path id="Path_735" data-name="Path 735" d="M144.6,9.183V31.837h-9.106v8.472l6.959,6.959V77.346l-6.959,6.96v23.1l6.959,6.96v30.078l-6.959,6.96v8.9H144.6v22.41h11.839V9.183Z" fill="none" stroke="#fe4f02" stroke-linejoin="bevel" stroke-width="1"></path>
  <path id="Path_736" data-name="Path 736" d="M86.625,93.2v-8.9l6.96-6.96V47.268l-6.96-6.959V31.837h9.106V9.144H49.039V182.707H95.731V160.3H86.625v-8.9l6.96-6.96V114.361l-6.96-6.959V98.93h9.106V93.2Z" fill="#fdf2ed"></path>
  <path id="Path_737" data-name="Path 737" d="M86.625,93.2v-8.9l6.96-6.96V47.268l-6.96-6.959V31.837h9.106V9.144H49.039V182.707H95.731V160.3H86.625v-8.9l6.96-6.96V114.361l-6.96-6.959V98.93h9.106V93.2Z" fill="none" stroke="#fe4f02" stroke-linejoin="bevel" stroke-width="1"></path>
  <path id="Path_738" data-name="Path 738" d="M194.025,93.2v-8.9l6.96-6.96V47.268l-6.96-6.959V31.837h9.106V9.144H156.439V182.707h46.692V160.3h-9.106v-8.9l6.96-6.96V114.361l-6.96-6.959V98.93h9.106V93.2Z" fill="#fdf2ed"></path>
  <path id="Path_739" data-name="Path 739" d="M194.025,93.2v-8.9l6.96-6.96V47.268l-6.96-6.959V31.837h9.106V9.144H156.439V182.707h46.692V160.3h-9.106v-8.9l6.96-6.96V114.361l-6.96-6.959V98.93h9.106V93.2Z" fill="none" stroke="#fe4f02" stroke-linejoin="bevel" stroke-width="1"></path>
  <rect id="Rectangle_675" data-name="Rectangle 675" width="18.395" height="190.85" transform="translate(0.5 0.5)" fill="#fdf2ed"></rect>
  <g id="Group_297" data-name="Group 297">
    <g id="Group_296" data-name="Group 296" clip-path="url(#clip-path)">
      <rect id="Rectangle_676" data-name="Rectangle 676" width="18.395" height="190.85" transform="translate(0.5 0.5)" fill="none" stroke="#fe4f02" stroke-linejoin="bevel" stroke-width="1"></rect>
    </g>
  </g>
  <rect id="Rectangle_678" data-name="Rectangle 678" width="29.984" height="35.31" transform="translate(18.896 9.183)" fill="#fdf2ed"></rect>
  <rect id="Rectangle_679" data-name="Rectangle 679" width="29.984" height="35.31" transform="translate(18.896 9.183)" fill="none" stroke="#fe4f02" stroke-linejoin="bevel" stroke-width="1"></rect>
  <rect id="Rectangle_680" data-name="Rectangle 680" width="29.984" height="31.169" transform="translate(18.896 151.538)" fill="#fdf2ed"></rect>
  <rect id="Rectangle_681" data-name="Rectangle 681" width="29.984" height="31.169" transform="translate(18.896 151.538)" fill="none" stroke="#fe4f02" stroke-linejoin="bevel" stroke-width="1"></rect>
  <rect id="Rectangle_682" data-name="Rectangle 682" width="18.816" height="99.639" transform="translate(18.895 48.399)" fill="#fdf2ed"></rect>
  <rect id="Rectangle_683" data-name="Rectangle 683" width="18.816" height="99.639" transform="translate(18.895 48.399)" fill="none" stroke="#fe4f02" stroke-linejoin="bevel" stroke-width="1"></rect>
  <rect id="Rectangle_684" data-name="Rectangle 684" width="58.894" height="6.936" transform="translate(30.515 126.145)" fill="#e5c4b7"></rect>
  <rect id="Rectangle_685" data-name="Rectangle 685" width="58.894" height="6.936" transform="translate(30.515 126.145)" fill="none" stroke="#fe4f02" stroke-linejoin="bevel" stroke-width="1"></rect>
  <rect id="Rectangle_686" data-name="Rectangle 686" width="58.894" height="6.936" transform="translate(30.515 59.119)" fill="#e5c4b7"></rect>
  <rect id="Rectangle_687" data-name="Rectangle 687" width="58.894" height="6.936" transform="translate(30.515 59.119)" fill="none" stroke="#fe4f02" stroke-linejoin="bevel" stroke-width="1"></rect>
  <rect id="Rectangle_688" data-name="Rectangle 688" width="4.672" height="18.254" transform="translate(25.843 120.486)" fill="#e5c4b7"></rect>
  <rect id="Rectangle_689" data-name="Rectangle 689" width="4.672" height="18.254" transform="translate(25.843 120.486)" fill="none" stroke="#fe4f02" stroke-linejoin="bevel" stroke-width="1"></rect>
  <rect id="Rectangle_690" data-name="Rectangle 690" width="4.672" height="18.254" transform="translate(25.843 53.46)" fill="#e5c4b7"></rect>
  <rect id="Rectangle_691" data-name="Rectangle 691" width="4.672" height="18.254" transform="translate(25.843 53.46)" fill="none" stroke="#fe4f02" stroke-linejoin="bevel" stroke-width="1"></rect>
  <rect id="Rectangle_692" data-name="Rectangle 692" width="50.911" height="10.127" transform="translate(53.711 16.366)" fill="#e5c4b7"></rect>
  <rect id="Rectangle_693" data-name="Rectangle 693" width="50.911" height="10.127" transform="translate(53.711 16.366)" fill="none" stroke="#fe4f02" stroke-linejoin="bevel" stroke-width="1"></rect>
  <rect id="Rectangle_694" data-name="Rectangle 694" width="4.672" height="18.254" transform="translate(48.88 12.112)" fill="#e5c4b7"></rect>
  <rect id="Rectangle_695" data-name="Rectangle 695" width="4.672" height="18.254" transform="translate(48.88 12.112)" fill="none" stroke="#fe4f02" stroke-linejoin="bevel" stroke-width="1"></rect>
  <rect id="Rectangle_696" data-name="Rectangle 696" width="4.974" height="10.127" transform="translate(104.623 16.366)" fill="#e5c4b7"></rect>
  <rect id="Rectangle_697" data-name="Rectangle 697" width="4.974" height="10.127" transform="translate(104.623 16.366)" fill="none" stroke="#fe4f02" stroke-linejoin="bevel" stroke-width="1"></rect>
  <rect id="Rectangle_698" data-name="Rectangle 698" width="58.719" height="10.127" transform="translate(144.412 16.366)" fill="#e5c4b7"></rect>
  <rect id="Rectangle_699" data-name="Rectangle 699" width="58.719" height="10.127" transform="translate(144.412 16.366)" fill="none" stroke="#fe4f02" stroke-linejoin="bevel" stroke-width="1"></rect>
  <rect id="Rectangle_700" data-name="Rectangle 700" width="58.719" height="10.127" transform="translate(144.412 165.332)" fill="#e5c4b7"></rect>
  <rect id="Rectangle_701" data-name="Rectangle 701" width="58.719" height="10.127" transform="translate(144.412 165.332)" fill="none" stroke="#fe4f02" stroke-linejoin="bevel" stroke-width="1"></rect>
  <rect id="Rectangle_702" data-name="Rectangle 702" width="50.911" height="10.127" transform="translate(53.711 165.522)" fill="#e5c4b7"></rect>
  <rect id="Rectangle_703" data-name="Rectangle 703" width="50.911" height="10.127" transform="translate(53.711 165.522)" fill="none" stroke="#fe4f02" stroke-linejoin="bevel" stroke-width="1"></rect>
  <rect id="Rectangle_704" data-name="Rectangle 704" width="4.672" height="18.254" transform="translate(48.88 161.268)" fill="#e5c4b7"></rect>
  <rect id="Rectangle_705" data-name="Rectangle 705" width="4.672" height="18.254" transform="translate(48.88 161.268)" fill="none" stroke="#fe4f02" stroke-linejoin="bevel" stroke-width="1"></rect>
  <rect id="Rectangle_706" data-name="Rectangle 706" width="4.974" height="10.127" transform="translate(104.623 165.522)" fill="#e5c4b7"></rect>
  <rect id="Rectangle_707" data-name="Rectangle 707" width="4.974" height="10.127" transform="translate(104.623 165.522)" fill="none" stroke="#fe4f02" stroke-linejoin="bevel" stroke-width="1"></rect>
  <line id="Line_80" data-name="Line 80" x2="17.373" transform="translate(111.702 62.52)" fill="none" stroke="#fe4f02" stroke-linejoin="bevel" stroke-width="3"></line>
  <path id="Path_740" data-name="Path 740" d="M100.545,40.718l10.934,11.14V73.52L100.545,84.454" fill="none" stroke="#fe4f02" stroke-linejoin="bevel" stroke-width="3"></path>
  <line id="Line_81" data-name="Line 81" x2="17.373" transform="translate(111.702 126.078)" fill="none" stroke="#fe4f02" stroke-linejoin="bevel" stroke-width="3"></line>
  <path id="Path_741" data-name="Path 741" d="M100.545,104.277l10.934,11.14v21.662l-10.934,10.934" fill="none" stroke="#fe4f02" stroke-linejoin="bevel" stroke-width="3"></path>
  <line id="Line_82" data-name="Line 82" x2="17.373" transform="translate(221.422 62.52)" fill="none" stroke="#fe4f02" stroke-linejoin="bevel" stroke-width="3"></line>
  <path id="Path_742" data-name="Path 742" d="M210.264,40.718,221.2,51.858V73.52L210.264,84.454" fill="none" stroke="#fe4f02" stroke-linejoin="bevel" stroke-width="3"></path>
  <line id="Line_83" data-name="Line 83" x2="17.373" transform="translate(221.422 126.078)" fill="none" stroke="#fe4f02" stroke-linejoin="bevel" stroke-width="3"></line>
  <path id="Path_743" data-name="Path 743" d="M210.264,104.277l10.934,11.14v21.662l-10.934,10.934" fill="none" stroke="#fe4f02" stroke-linejoin="bevel" stroke-width="3"></path>
  <path id="Path_744" data-name="Path 744" d="M25.843,148.038v0Z" fill="#e5c4b7"></path>
  <line id="Line_84" data-name="Line 84" y2="99.639" transform="translate(25.843 48.399)" fill="none" stroke="#fe4f02" stroke-linejoin="bevel" stroke-width="1"></line>
</svg>
