<?xml version="1.0" encoding="UTF-8"?>
<svg xmlns="http://www.w3.org/2000/svg" width="269.81" height="34.59">
  <g data-name="Group 2" clip-path="url(&quot;#a&quot;)">
    <path d="M202.287 21.38c0 7.966-4.845 12.88-12.899 12.88-8.1 0-12.92-4.914-12.92-12.88 0-7.991 4.82-12.93 12.92-12.93 8.054 0 12.9 4.939 12.9 12.93m-7.524 0c0-5.157-2.097-7.527-5.376-7.527-3.299 0-5.396 2.37-5.396 7.527s2.097 7.477 5.396 7.477c3.279 0 5.376-2.32 5.376-7.477" fill-rule="evenodd" data-name="Path 12"></path>
    <path d="M254.848 8.78c3.494 0 5.969 1.323 7.395 3.497h.186V.352h7.38v33.655h-7.073v-3.264h-.186c-1.576 2.78-4.44 3.847-7.527 3.847-6.133 0-10.657-4.914-10.657-12.88 0-7.99 4.524-12.93 10.482-12.93Zm7.956 12.93c0-5.008-2.168-7.377-5.447-7.377-3.324 0-5.468 2.37-5.468 7.377 0 4.982 2.144 7.352 5.468 7.352 3.279 0 5.447-2.37 5.447-7.352" fill-rule="evenodd" data-name="Path 13"></path>
    <path d="M77.102 28.429c1.041 0 1.868-.136 2.372-.269v5.496c-.914.307-2.862.583-4.706.583-5.28 0-7.567-1.395-7.567-6.535V13.786h-3.844V9.011H67.2V2.185h7.381V9.01h5.021v4.775h-5.02v12.33c0 1.937.768 2.313 2.52 2.313Z" fill-rule="evenodd" data-name="Path 14"></path>
    <path d="M89.75 12.834h.185c1.358-2.65 3.79-4.405 7.476-4.405.545 0 1.107.068 1.486.182v6.846c-.576-.068-1.662-.186-2.641-.186-3.55 0-6.2 1.481-6.2 6.296v12.09h-7.38V9.01h7.073v3.823Z" fill-rule="evenodd" data-name="Path 15"></path>
    <path d="M117.389 30.348c-1.557 2.194-4.05 3.89-7.848 3.89-4.866 0-8.643-2.803-8.643-9.057V9.011h7.38v14.38c0 3.628 1.507 4.956 4.195 4.956 2.518 0 4.795-1.904 4.795-5.98V9.012h7.38v24.645h-7.073v-3.308h-.186Z" fill-rule="evenodd" data-name="Path 16"></path>
    <path d="M165.48 8.43c4.615 0 8.252 2.802 8.252 9.056v16.17h-7.38v-14.38c0-3.628-1.439-4.956-3.876-4.956-2.336 0-4.383 1.905-4.383 5.98v13.357h-7.381v-14.38c0-3.629-1.414-4.957-3.85-4.957-2.337 0-4.409 1.905-4.409 5.98v13.357h-7.381V9.012h7.074v3.329h.185c1.557-2.194 3.889-3.912 7.508-3.912 3.164 0 5.825 1.309 7.213 4.123 1.881-2.176 4.248-4.123 8.427-4.123Z" fill-rule="evenodd" data-name="Path 17"></path>
    <path d="M221.514 30.348c-1.557 2.194-4.05 3.89-7.848 3.89-4.865 0-8.642-2.803-8.642-9.057V9.011h7.38v14.38c0 3.628 1.506 4.956 4.194 4.956 2.519 0 4.795-1.904 4.795-5.98V9.012h7.381v24.645h-7.073v-3.308h-.187Z" fill-rule="evenodd" data-name="Path 18"></path>
    <path d="M233.125 0h7.38v33.656h-7.38V0z" fill-rule="evenodd" data-name="Rectangle 10"></path>
    <path d="M0 .703h9.717l13 14.714a5.672 5.672 0 0 0 4.25 1.916h8.379l8.26 9.578v7.327h-9.754L20.691 19.375a5.673 5.673 0 0 0-4.246-1.911h-8.12L0 8.192V.703Z" fill="#fe4f02" fill-rule="evenodd" data-name="Path 19"></path>
    <path d="m40.614.821 2.991 3.9v7.326h-9.753L23.682.586" fill="#fe4f02" fill-rule="evenodd" data-name="Path 20"></path>
    <path d="M19.924 34.238 9.754 22.776H0v7.327l2.99 3.9 16.934.235Z" fill="#fe4f02" fill-rule="evenodd" data-name="Path 21"></path>
  </g>
  <defs>
    <clipPath id="a">
      <path d="M0 0h269.81v34.59H0V0z" data-name="Rectangle 11"></path>
    </clipPath>
  </defs>
</svg>
