<?xml version="1.0" encoding="UTF-8"?>
<svg xmlns="http://www.w3.org/2000/svg" width="37.143" height="26" viewBox="261.145 715.75 37.143 26">
  <path d="M292.345 727.044a5.573 5.573 0 0 0-5.2-7.58 5.543 5.543 0 0 0-3.093.94 9.278 9.278 0 0 0-8.05-4.654 9.283 9.283 0 0 0-9.286 9.286c0 .156.006.313.012.47a8.36 8.36 0 0 0 2.774 16.244h21.357a7.428 7.428 0 0 0 1.486-14.706Zm-8.369 3.563h-3.795v6.5c0 .51-.418.929-.929.929h-2.786a.931.931 0 0 1-.928-.929v-6.5h-3.796c-.83 0-1.242-.998-.655-1.584l6.117-6.117a.932.932 0 0 1 1.311 0l6.117 6.117c.586.586.168 1.584-.656 1.584Z" fill="#fe4f02" fill-rule="evenodd" data-name="Icon awesome-cloud-upload-alt"></path>
</svg>
